<?xml version="1.0" encoding="utf-8"?>
<!-- Generator: Adobe Illustrator 16.0.0, SVG Export Plug-In . SVG Version: 6.00 Build 0)  -->
<!DOCTYPE svg PUBLIC "-//W3C//DTD SVG 1.1//EN" "http://www.w3.org/Graphics/SVG/1.1/DTD/svg11.dtd">
<svg version="1.1" id="Layer_1" xmlns="http://www.w3.org/2000/svg" xmlns:xlink="http://www.w3.org/1999/xlink" x="0px" y="0px"
	 width="288px" height="108px" viewBox="0 0 288 108" enable-background="new 0 0 288 108" xml:space="preserve">
<g>
	<path fill="#FFFFFF" d="M154.824,67.469c-15.916,1.834-17.857,8.288-11.501,13.194l-1.53-1.185l26.669,20.071
		c1.625,1.245,3.562,1.853,5.496,1.853c0.571,0,1.147-0.062,1.708-0.17c-0.002,0-0.006,0-0.014,0.007
		c0.012-0.007,0.021-0.011,0.027-0.011c0.471-0.086,0.93-0.219,1.381-0.379c0.055-0.018,0.11-0.048,0.164-0.066
		c0.416-0.16,0.83-0.348,1.221-0.569c0.029-0.019,0.062-0.038,0.09-0.056c0.398-0.229,0.777-0.506,1.137-0.797
		c0.075-0.065,0.154-0.129,0.225-0.196c0.351-0.312,0.696-0.646,1.006-1.022c3.033-3.73,2.385-9.14-1.444-12.093L154.824,67.469z"/>
	<path fill="#FFFFFF" d="M168.105,16.525c-0.211-0.104-1.01-0.496-1.4-0.667c-0.28-0.097-0.542-0.217-0.826-0.309
		c-0.229-0.069-0.458-0.129-0.684-0.195c-0.814-0.232-1.647-0.442-2.495-0.623c-0.306-0.062-0.617-0.125-0.933-0.189
		c-0.813-0.143-1.646-0.257-2.49-0.35c-0.322-0.033-0.643-0.083-0.969-0.111c-1.133-0.1-2.285-0.157-3.463-0.16h-0.066h-7.578
		h-0.182v0.008c-0.265,0-0.541,0.009-0.826,0.015c-5.803,0.181-11.741,2.431-13.568,17.705c-0.029,0.009-0.049,0.021-0.073,0.032
		c0.99-0.355,4.613-0.54,6.315-0.54h14.363c7.852,0,8.737,3.533,8.922,7.125c0.004,0.092,0.014,0.186,0.014,0.282
		c0,1.422-0.593,2.833-1.82,4.031C175.921,37.682,180.585,23.086,168.105,16.525"/>
	<path fill="#FFFFFF" d="M144.206,13.923h-3.689h-7.08c-15.006,0-24.701,9.269-24.701,23.62v55.254c0,2.225,0.889,4.225,2.313,5.762
		c0.065,0.064,0.116,0.141,0.176,0.205c0.069,0.068,0.131,0.133,0.198,0.194c0.335,0.325,0.705,0.61,1.092,0.874
		c0.084,0.066,0.178,0.121,0.269,0.18c0.399,0.246,0.816,0.479,1.258,0.662c0.084,0.041,0.169,0.068,0.256,0.102
		c0.465,0.183,0.951,0.332,1.454,0.438c0.054,0.011,0.112,0.015,0.167,0.027c0.543,0.104,1.1,0.161,1.67,0.161
		c4.886,0,8.847-3.855,8.847-8.604V37.543c0-0.284,0.012-0.545,0.026-0.811c0.007-0.632,0.028-1.242,0.063-1.833
		c0.025-0.463,0.063-0.91,0.102-1.348c0.013-0.132,0.016-0.264,0.03-0.397c0.042-0.444,0.098-0.878,0.159-1.3
		c0.012-0.111,0.023-0.231,0.042-0.338c0.056-0.424,0.125-0.825,0.197-1.225c0.021-0.104,0.041-0.225,0.054-0.33
		c0.078-0.384,0.164-0.76,0.251-1.131c0.024-0.107,0.046-0.219,0.071-0.326c0.087-0.359,0.188-0.705,0.283-1.051
		c0.029-0.104,0.057-0.215,0.089-0.316c0.101-0.331,0.209-0.646,0.314-0.958c0.041-0.111,0.073-0.22,0.111-0.329
		c0.111-0.3,0.226-0.585,0.343-0.87c0.042-0.109,0.087-0.225,0.137-0.33c0.115-0.274,0.232-0.528,0.36-0.786
		c0.052-0.111,0.103-0.227,0.163-0.34c0.124-0.243,0.248-0.477,0.38-0.708c0.063-0.109,0.121-0.222,0.181-0.327
		c0.131-0.218,0.265-0.432,0.397-0.642c0.068-0.108,0.143-0.22,0.215-0.323c0.133-0.201,0.27-0.39,0.403-0.574
		c0.082-0.108,0.154-0.219,0.24-0.321c0.132-0.174,0.274-0.345,0.416-0.511c0.087-0.104,0.176-0.207,0.264-0.305
		c0.136-0.161,0.277-0.312,0.42-0.463c0.098-0.097,0.194-0.2,0.286-0.296c0.145-0.135,0.287-0.273,0.426-0.397
		c0.105-0.104,0.211-0.197,0.315-0.292c0.142-0.125,0.281-0.236,0.423-0.348c0.114-0.095,0.227-0.19,0.343-0.276
		c0.139-0.107,0.28-0.208,0.416-0.309c0.123-0.088,0.245-0.172,0.368-0.258c0.138-0.094,0.272-0.181,0.412-0.271
		c0.131-0.081,0.262-0.158,0.391-0.236c0.135-0.081,0.272-0.161,0.408-0.229c0.139-0.081,0.275-0.155,0.412-0.223
		c0.132-0.074,0.261-0.136,0.396-0.206c0.145-0.065,0.288-0.135,0.44-0.201c0.126-0.057,0.253-0.114,0.374-0.168
		c0.156-0.064,0.308-0.125,0.459-0.186c0.124-0.046,0.249-0.096,0.377-0.145c0.153-0.056,0.308-0.11,0.468-0.161
		c0.121-0.039,0.241-0.083,0.363-0.122c0.161-0.054,0.316-0.1,0.475-0.143c0.12-0.033,0.24-0.071,0.356-0.1
		c0.165-0.048,0.33-0.089,0.489-0.127c0.118-0.029,0.227-0.056,0.345-0.086c0.16-0.032,0.323-0.067,0.489-0.1
		c0.111-0.024,0.228-0.046,0.334-0.067c0.162-0.03,0.321-0.057,0.479-0.086c0.113-0.017,0.232-0.038,0.345-0.054
		c0.151-0.026,0.3-0.045,0.451-0.066c0.118-0.017,0.242-0.032,0.36-0.049c0.135-0.017,0.273-0.028,0.416-0.045
		c0.122-0.013,0.254-0.033,0.378-0.036c0.117-0.017,0.229-0.021,0.349-0.032c0.145-0.013,0.289-0.024,0.433-0.033
		c0.082-0.005,0.167-0.016,0.247-0.018c0.18-0.012,0.346-0.016,0.514-0.026c0.034,0,0.067,0,0.098-0.002
		c0.422-0.015,0.844-0.024,1.236-0.024v-0.006h-2.812V13.923z"/>
	<path fill="#FFFFFF" d="M184.157,38.547c0-6.546-2.949-12.888-8.099-17.406c-0.83-0.723-1.713-1.381-2.631-1.995
		c-0.025-0.015-0.052-0.031-0.07-0.04c-0.437-0.292-0.902-0.529-1.357-0.793c7.393,4.706,9.414,12.421,5.424,18.454
		c-0.021,0.034-0.042,0.064-0.061,0.094c-0.223,0.327-0.449,0.646-0.709,0.961c-0.062,0.075-0.139,0.155-0.202,0.231
		c-0.22,0.26-0.445,0.521-0.693,0.776c-0.099,0.107-0.217,0.208-0.327,0.311c-0.225,0.219-0.445,0.438-0.697,0.651
		c-0.146,0.129-0.312,0.248-0.469,0.374c-0.224,0.184-0.441,0.364-0.679,0.538c-0.198,0.147-0.417,0.274-0.627,0.412
		c-0.218,0.146-0.425,0.304-0.655,0.441c-0.273,0.168-0.566,0.317-0.854,0.472c-0.186,0.102-0.365,0.215-0.562,0.317
		c-0.322,0.161-0.664,0.312-1.002,0.463c-0.185,0.085-0.359,0.177-0.546,0.25c-0.362,0.16-0.759,0.301-1.146,0.442
		c-0.18,0.067-0.344,0.143-0.526,0.201c-0.405,0.139-0.835,0.264-1.259,0.391c-0.188,0.053-0.365,0.119-0.551,0.166
		c-0.441,0.125-0.912,0.227-1.377,0.337c-0.19,0.043-0.371,0.092-0.564,0.133c-0.537,0.115-1.093,0.211-1.646,0.302
		c-0.153,0.021-0.283,0.054-0.432,0.078c-0.595,0.09-1.208,0.158-1.829,0.227c-0.127,0.013-0.254,0.034-0.385,0.045
		c-0.481,0.049-0.981,0.078-1.479,0.107c-0.295,0.026-0.574,0.05-0.873,0.063c-0.801,0.036-1.629,0.06-2.479,0.06
		c0.017,0,0.039-0.002,0.06-0.002c0.528-0.003,1.037-0.021,1.526-0.052h0.022c0.149-0.013,0.298-0.026,0.443-0.036
		c0.022-0.004,0.036-0.006,0.057-0.006c-0.166,0.016-0.332,0.029-0.5,0.042c-0.514,0.03-1.039,0.052-1.59,0.052
		c-0.012,0.002-0.02,0.002-0.033,0.002h-5.731c-0.823,0-1.618,0.039-2.407,0.102c-0.174,0.016-0.346,0.029-0.516,0.041
		c-0.77,0.079-1.525,0.174-2.253,0.302c-0.069,0.013-0.139,0.029-0.207,0.042c-0.701,0.132-1.382,0.292-2.037,0.474
		c-0.104,0.027-0.198,0.058-0.295,0.084c-0.707,0.207-1.393,0.445-2.047,0.714c-0.043,0.014-0.089,0.036-0.133,0.055
		c-1.367,0.573-2.608,1.262-3.714,2.078c-0.012,0.009-0.024,0.016-0.035,0.026c-1.125,0.832-2.104,1.785-2.926,2.849
		c0,0.001-0.003,0.005-0.007,0.005c-0.924,1.203-1.662,2.539-2.163,4.015c-0.319,0.928-0.527,1.871-0.643,2.818
		c-0.011,0.061-0.011,0.122-0.019,0.182c-0.063,0.525-0.089,1.063-0.087,1.593c0,0.081,0,0.153,0.005,0.229
		c0.09,5.57,3.383,11.212,9.313,15.55l0.574,0.438c-6.059-4.676-5.842-11.051,7.422-13.493c1.888-0.354,4.048-0.622,6.488-0.798
		c0.391-0.051,0.859-0.084,1.416-0.084c1.047,0,2.059-0.048,3.056-0.123c0.257-0.018,0.515-0.033,0.763-0.055
		c0.108-0.008,0.223-0.014,0.327-0.024c-0.028,0-0.056-0.005-0.086-0.005C175.473,61.032,184.157,49.735,184.157,38.547"/>
</g>
</svg>
