<?xml version="1.0" encoding="utf-8"?>
<!-- Generator: Adobe Illustrator 16.0.0, SVG Export Plug-In . SVG Version: 6.00 Build 0)  -->
<!DOCTYPE svg PUBLIC "-//W3C//DTD SVG 1.1//EN" "http://www.w3.org/Graphics/SVG/1.1/DTD/svg11.dtd">
<svg version="1.1" id="Layer_1" xmlns="http://www.w3.org/2000/svg" xmlns:xlink="http://www.w3.org/1999/xlink" x="0px" y="0px"
	 width="288px" height="281px" viewBox="0 -83.5 288 281" enable-background="new 0 -83.5 288 281" xml:space="preserve">
<g>
	<path fill="#FFFFFF" d="M168.153,83.072c-41.239,4.752-46.27,21.476-29.799,34.188l-3.965-3.069l69.101,52.006
		c4.211,3.227,9.229,4.8,14.241,4.8c1.48,0,2.973-0.161,4.426-0.439c-0.005,0-0.016,0-0.036,0.018
		c0.031-0.018,0.056-0.028,0.071-0.028c1.22-0.223,2.409-0.566,3.578-0.981c0.142-0.046,0.286-0.124,0.425-0.172
		c1.078-0.415,2.15-0.901,3.163-1.476c0.076-0.048,0.159-0.099,0.232-0.145c1.032-0.592,2.015-1.311,2.945-2.064
		c0.195-0.17,0.4-0.334,0.582-0.509c0.908-0.807,1.805-1.672,2.606-2.649c7.859-9.665,6.179-23.681-3.742-31.333L168.153,83.072z"/>
	<path fill="#FFFFFF" d="M202.566-48.926c-0.547-0.27-2.616-1.285-3.629-1.728c-0.726-0.252-1.404-0.562-2.141-0.801
		c-0.592-0.179-1.187-0.334-1.771-0.505c-2.11-0.601-4.269-1.145-6.465-1.614c-0.792-0.161-1.599-0.324-2.416-0.49
		c-2.108-0.371-4.264-0.666-6.452-0.907c-0.835-0.084-1.665-0.215-2.511-0.287c-2.935-0.259-5.921-0.407-8.973-0.415h-0.172h-19.635
		h-0.471v0.021c-0.687,0-1.402,0.023-2.141,0.038c-15.037,0.469-30.423,6.299-35.157,45.875c-0.075,0.024-0.126,0.054-0.19,0.083
		c2.566-0.92,11.953-1.399,16.364-1.399h37.216c20.344,0,22.639,9.153,23.117,18.461c0.01,0.238,0.035,0.482,0.035,0.73
		c0,3.686-1.536,7.34-4.717,10.445C222.816,5.894,234.901-31.926,202.566-48.926"/>
	<path fill="#FFFFFF" d="M140.641-55.668h-9.558h-18.345c-38.881,0-64.002,24.017-64.002,61.201v143.166
		c0,5.764,2.304,10.946,5.993,14.929c0.168,0.167,0.301,0.364,0.457,0.531c0.179,0.178,0.339,0.345,0.513,0.504
		c0.868,0.843,1.827,1.581,2.83,2.265c0.218,0.172,0.46,0.313,0.697,0.466c1.033,0.638,2.114,1.242,3.259,1.715
		c0.218,0.106,0.438,0.178,0.663,0.264c1.206,0.473,2.464,0.86,3.768,1.136c0.141,0.028,0.29,0.038,0.433,0.071
		c1.407,0.271,2.851,0.417,4.327,0.417c12.66,0,22.923-9.989,22.923-22.294V5.533c0-0.736,0.032-1.412,0.067-2.102
		c0.019-1.637,0.074-3.217,0.164-4.75c0.064-1.199,0.163-2.357,0.264-3.493c0.034-0.342,0.042-0.683,0.079-1.029
		c0.109-1.15,0.253-2.274,0.411-3.368c0.032-0.287,0.06-0.598,0.109-0.875c0.146-1.1,0.324-2.138,0.511-3.174
		c0.055-0.27,0.106-0.583,0.139-0.855c0.203-0.995,0.425-1.969,0.65-2.93c0.062-0.277,0.119-0.568,0.185-0.845
		c0.225-0.93,0.487-1.827,0.732-2.723c0.076-0.27,0.148-0.558,0.231-0.819c0.261-0.857,0.542-1.674,0.813-2.482
		c0.106-0.289,0.188-0.571,0.287-0.853c0.287-0.778,0.586-1.516,0.888-2.254c0.109-0.282,0.227-0.583,0.355-0.855
		c0.297-0.71,0.601-1.368,0.933-2.036c0.135-0.289,0.267-0.588,0.422-0.882c0.321-0.629,0.643-1.236,0.984-1.834
		c0.163-0.282,0.314-0.576,0.469-0.847c0.339-0.565,0.687-1.12,1.029-1.664c0.176-0.28,0.371-0.571,0.557-0.837
		c0.345-0.52,0.7-1.011,1.045-1.487c0.212-0.281,0.398-0.568,0.621-0.833c0.343-0.45,0.71-0.893,1.078-1.323
		c0.225-0.27,0.457-0.537,0.685-0.791c0.352-0.418,0.717-0.809,1.088-1.2c0.254-0.251,0.502-0.519,0.741-0.767
		c0.376-0.351,0.744-0.707,1.104-1.029c0.272-0.269,0.546-0.511,0.816-0.756c0.368-0.324,0.729-0.612,1.097-0.902
		c0.295-0.247,0.588-0.492,0.888-0.715c0.361-0.278,0.727-0.539,1.078-0.801c0.319-0.229,0.635-0.447,0.954-0.669
		c0.356-0.243,0.705-0.468,1.066-0.702c0.34-0.21,0.679-0.409,1.013-0.611c0.351-0.21,0.705-0.417,1.058-0.593
		c0.361-0.21,0.712-0.401,1.068-0.578c0.342-0.191,0.676-0.352,1.026-0.534c0.375-0.168,0.745-0.35,1.14-0.52
		c0.327-0.148,0.655-0.296,0.969-0.436c0.404-0.166,0.798-0.324,1.189-0.482c0.321-0.119,0.645-0.249,0.977-0.375
		c0.396-0.146,0.798-0.285,1.212-0.417c0.314-0.102,0.625-0.215,0.941-0.316c0.416-0.139,0.818-0.259,1.231-0.371
		c0.31-0.085,0.621-0.184,0.922-0.258c0.428-0.125,0.854-0.231,1.266-0.329c0.307-0.076,0.588-0.146,0.895-0.224
		c0.414-0.083,0.836-0.173,1.267-0.258c0.287-0.063,0.591-0.12,0.865-0.174c0.42-0.077,0.833-0.147,1.241-0.223
		c0.293-0.044,0.601-0.099,0.895-0.139c0.391-0.068,0.777-0.118,1.168-0.172c0.306-0.043,0.627-0.082,0.934-0.126
		c0.349-0.044,0.707-0.072,1.078-0.116c0.315-0.034,0.658-0.086,0.979-0.094c0.302-0.044,0.593-0.054,0.904-0.082
		c0.375-0.034,0.749-0.062,1.121-0.086c0.212-0.013,0.433-0.042,0.64-0.047c0.466-0.03,0.896-0.042,1.331-0.067
		c0.089,0,0.175,0,0.253-0.005c1.093-0.04,2.187-0.062,3.203-0.062v-0.017h-7.285V-55.668z"/>
	<path fill="#FFFFFF" d="M244.157,8.134c0-16.961-7.642-33.393-20.984-45.1c-2.15-1.874-4.438-3.579-6.816-5.169
		c-0.065-0.039-0.134-0.08-0.183-0.104c-1.131-0.757-2.338-1.37-3.517-2.055C231.812-32.1,237.05-12.11,226.711,3.522
		c-0.056,0.087-0.109,0.166-0.157,0.243c-0.577,0.848-1.164,1.674-1.837,2.49c-0.159,0.195-0.359,0.402-0.523,0.6
		c-0.569,0.673-1.154,1.35-1.797,2.01c-0.256,0.277-0.562,0.539-0.848,0.806c-0.582,0.567-1.154,1.135-1.807,1.687
		c-0.377,0.334-0.808,0.643-1.215,0.969c-0.579,0.477-1.144,0.942-1.759,1.394c-0.514,0.381-1.08,0.709-1.624,1.068
		c-0.564,0.377-1.101,0.787-1.698,1.142c-0.708,0.436-1.468,0.821-2.211,1.222c-0.481,0.265-0.946,0.558-1.458,0.823
		c-0.835,0.416-1.721,0.808-2.596,1.199c-0.479,0.22-0.932,0.458-1.415,0.648c-0.938,0.414-1.966,0.779-2.968,1.145
		c-0.466,0.173-0.891,0.371-1.363,0.521c-1.051,0.359-2.164,0.683-3.262,1.012c-0.486,0.138-0.946,0.309-1.428,0.43
		c-1.144,0.324-2.363,0.588-3.567,0.874c-0.493,0.111-0.962,0.238-1.463,0.344c-1.392,0.297-2.831,0.546-4.266,0.782
		c-0.397,0.055-0.734,0.141-1.118,0.203c-1.541,0.234-3.131,0.41-4.74,0.588c-0.328,0.034-0.657,0.088-0.996,0.116
		c-1.248,0.128-2.543,0.203-3.834,0.277c-0.764,0.068-1.487,0.13-2.262,0.163c-2.075,0.094-4.221,0.155-6.425,0.155
		c0.043,0,0.102-0.005,0.154-0.005c1.369-0.007,2.688-0.054,3.955-0.134h0.058c0.388-0.034,0.772-0.068,1.149-0.093
		c0.058-0.01,0.094-0.015,0.146-0.015c-0.43,0.041-0.86,0.074-1.296,0.108c-1.33,0.078-2.691,0.134-4.119,0.134
		c-0.03,0.005-0.051,0.005-0.086,0.005h-14.851c-2.133,0-4.192,0.102-6.237,0.265c-0.45,0.042-0.896,0.076-1.336,0.106
		c-1.994,0.205-3.952,0.45-5.837,0.783c-0.18,0.033-0.36,0.074-0.536,0.108c-1.817,0.342-3.581,0.757-5.278,1.228
		c-0.27,0.071-0.513,0.15-0.764,0.217c-1.832,0.537-3.61,1.154-5.304,1.851c-0.111,0.036-0.231,0.092-0.345,0.142
		c-3.542,1.485-6.757,3.271-9.623,5.385c-0.032,0.022-0.062,0.042-0.091,0.067c-2.915,2.156-5.451,4.625-7.581,7.382
		c0,0.002-0.008,0.013-0.018,0.013c-2.395,3.117-4.307,6.579-5.604,10.402c-0.827,2.403-1.366,4.848-1.666,7.303
		c-0.029,0.156-0.029,0.315-0.049,0.471c-0.164,1.361-0.23,2.755-0.226,4.127c0,0.21,0,0.396,0.013,0.592
		c0.233,14.433,8.765,29.051,24.131,40.29l1.488,1.134c-15.7-12.115-15.138-28.633,19.23-34.962
		c4.891-0.918,10.488-1.611,16.812-2.066c1.012-0.132,2.227-0.218,3.669-0.218c2.713,0,5.334-0.124,7.917-0.319
		c0.666-0.045,1.334-0.086,1.977-0.142c0.281-0.021,0.577-0.035,0.848-0.063c-0.073,0-0.145-0.013-0.223-0.013
		C221.655,66.396,244.157,37.123,244.157,8.134"/>
</g>
</svg>
